{
  "accessors": [
    {
      "bufferView": 3,
      "componentType": 5126,
      "count": 120,
      "max": [
        0.452894389629364,
        1.4485012292861938,
        0.23956334590911865
      ],
      "min": [
        -0.1978018879890442,
        0.980006217956543,
        0.0840458869934082
      ],
      "type": "VEC3"
    },
    {
      "bufferView": 3,
      "byteOffset": 1440,
      "componentType": 5126,
      "count": 120,
      "max": [
        0.5543198585510254,
        -0.010877907276153564,
        -0.8322327136993408
      ],
      "min": [
        -0.47312474250793457,
        -0.45254161953926086,
        -0.9999146461486816
      ],
      "type": "VEC3"
    },
    {
      "bufferView": 2,
      "componentType": 5126,
      "count": 120,
      "max": [
        1.0,
        1.0
      ],
      "min": [
        0.0,
        0.0
      ],
      "type": "VEC2"
    },
    {
      "bufferView": 1,
      "componentType": 5125,
      "count": 186,
      "type": "SCALAR"
    },
    {
      "bufferView": 3,
      "byteOffset": 2880,
      "componentType": 5126,
      "count": 686,
      "max": [
        1.0,
        2.2140114307403564,
        0.6947310566902161
      ],
      "min": [
        -1.0,
        -1.0786993503570557,
        -0.9131166934967041
      ],
      "type": "VEC3"
    },
    {
      "bufferView": 3,
      "byteOffset": 11112,
      "componentType": 5126,
      "count": 686,
      "max": [
        1.0,
        1.0,
        1.0
      ],
      "min": [
        -1.0,
        -1.0,
        -1.0
      ],
      "type": "VEC3"
    },
    {
      "bufferView": 2,
      "byteOffset": 960,
      "componentType": 5126,
      "count": 686,
      "max": [
        0.9889643788337708,
        0.9964022636413574
      ],
      "min": [
        0.004377543926239014,
        0.016612045466899872
      ],
      "type": "VEC2"
    },
    {
      "bufferView": 1,
      "byteOffset": 744,
      "componentType": 5125,
      "count": 1032,
      "type": "SCALAR"
    },
    {
      "bufferView": 5,
      "componentType": 5126,
      "count": 4,
      "max": [
        1.0,
        6.217248937900877e-15,
        0.0,
        0.0,
        4.3415934334772695e-17,
        1.0,
        0.9806981086730957,
        0.0,
        1.7093601201167985e-08,
        0.9806981086730957,
        1.0,
        0.0,
        0.7416172623634338,
        1.8925654888153076,
        0.297849178314209,
        1.0
      ],
      "min": [
        -1.0,
        -4.3415937643495145e-17,
        -8.742277657347586e-08,
        0.0,
        -8.573535126288334e-08,
        -0.9806981086730957,
        -0.19552800059318542,
        0.0,
        -6.234594707166252e-08,
        -0.19552788138389587,
        -0.9806981086730957,
        0.0,
        -0.7416170835494995,
        0.0,
        -1.8925654888153076,
        1.0
      ],
      "type": "MAT4"
    },
    {
      "bufferView": 0,
      "componentType": 5123,
      "count": 120,
      "type": "VEC4"
    },
    {
      "bufferView": 4,
      "componentType": 5126,
      "count": 120,
      "max": [
        1.0,
        0.0,
        0.0,
        0.0
      ],
      "min": [
        1.0,
        0.0,
        0.0,
        0.0
      ],
      "type": "VEC4"
    },
    {
      "bufferView": 0,
      "byteOffset": 960,
      "componentType": 5123,
      "count": 686,
      "type": "VEC4"
    },
    {
      "bufferView": 4,
      "byteOffset": 1920,
      "componentType": 5126,
      "count": 686,
      "max": [
        1.0,
        0.0,
        0.0,
        0.0
      ],
      "min": [
        1.0,
        0.0,
        0.0,
        0.0
      ],
      "type": "VEC4"
    },
    {
      "bufferView": 6,
      "componentType": 5126,
      "count": 56,
      "max": [
        5.541666507720947
      ],
      "min": [
        0.8333333134651184
      ],
      "type": "SCALAR"
    },
    {
      "bufferView": 8,
      "componentType": 5126,
      "count": 56,
      "max": [
        -3.090862321641907e-08,
        0.9998700618743896,
        0.7071068286895752,
        -7.047702421658641e-10
      ],
      "min": [
        -4.370570749756553e-08,
        0.7071068286895752,
        0.016123143956065178,
        -3.090862676913275e-08
      ],
      "type": "VEC4"
    },
    {
      "bufferView": 6,
      "byteOffset": 224,
      "componentType": 5126,
      "count": 38,
      "max": [
        5.541666507720947
      ],
      "min": [
        0.8333333134651184
      ],
      "type": "SCALAR"
    },
    {
      "bufferView": 7,
      "componentType": 5126,
      "count": 38,
      "max": [
        1.0,
        1.0000001192092896,
        1.0000001192092896
      ],
      "min": [
        1.0,
        0.9999998807907104,
        0.9999998807907104
      ],
      "type": "VEC3"
    },
    {
      "bufferView": 6,
      "byteOffset": 376,
      "componentType": 5126,
      "count": 48,
      "max": [
        5.541666507720947
      ],
      "min": [
        0.8333333134651184
      ],
      "type": "SCALAR"
    },
    {
      "bufferView": 7,
      "byteOffset": 456,
      "componentType": 5126,
      "count": 48,
      "max": [
        2.5105531396190164e-14,
        0.5538055896759033,
        5.960464477539063e-08
      ],
      "min": [
        -1.5156990517285057e-14,
        0.5538051128387451,
        -1.1920928955078125e-07
      ],
      "type": "VEC3"
    },
    {
      "bufferView": 6,
      "byteOffset": 568,
      "componentType": 5126,
      "count": 56,
      "max": [
        5.541666507720947
      ],
      "min": [
        0.8333333134651184
      ],
      "type": "SCALAR"
    },
    {
      "bufferView": 8,
      "byteOffset": 896,
      "componentType": 5126,
      "count": 56,
      "max": [
        8.3104252368571e-09,
        0.9973355531692505,
        0.7071068286895752,
        5.404689318311284e-08
      ],
      "min": [
        -2.851298575023975e-08,
        -0.7071068286895752,
        -0.7054928541183472,
        -5.338509012631221e-08
      ],
      "type": "VEC4"
    },
    {
      "bufferView": 6,
      "byteOffset": 792,
      "componentType": 5126,
      "count": 49,
      "max": [
        5.541666507720947
      ],
      "min": [
        0.8333333134651184
      ],
      "type": "SCALAR"
    },
    {
      "bufferView": 7,
      "byteOffset": 1032,
      "componentType": 5126,
      "count": 49,
      "max": [
        1.0,
        1.0000001192092896,
        1.0000001192092896
      ],
      "min": [
        1.0,
        0.9999998211860657,
        0.9999998211860657
      ],
      "type": "VEC3"
    }
  ],
  "animations": [
    {
      "channels": [
        {
          "sampler": 0,
          "target": {
            "node": 11,
            "path": "rotation"
          }
        },
        {
          "sampler": 1,
          "target": {
            "node": 11,
            "path": "scale"
          }
        },
        {
          "sampler": 2,
          "target": {
            "node": 12,
            "path": "translation"
          }
        },
        {
          "sampler": 3,
          "target": {
            "node": 12,
            "path": "rotation"
          }
        },
        {
          "sampler": 4,
          "target": {
            "node": 12,
            "path": "scale"
          }
        }
      ],
      "name": "open",
      "samplers": [
        {
          "input": 13,
          "interpolation": "LINEAR",
          "output": 14
        },
        {
          "input": 15,
          "interpolation": "LINEAR",
          "output": 16
        },
        {
          "input": 17,
          "interpolation": "LINEAR",
          "output": 18
        },
        {
          "input": 19,
          "interpolation": "LINEAR",
          "output": 20
        },
        {
          "input": 21,
          "interpolation": "LINEAR",
          "output": 22
        }
      ]
    }
  ],
  "asset": {
    "extras": {
      "author": "Hobo F Slapfight (https://sketchfab.com/hfslapfight)",
      "license": "CC-BY-NC-4.0 (http://creativecommons.org/licenses/by-nc/4.0/)",
      "source": "https://sketchfab.com/3d-models/gnu-handsystem-3960217948dd420fbad910c6211f6db7",
      "title": "GNU Handsystem"
    },
    "generator": "Sketchfab-12.68.0",
    "version": "2.0"
  },
  "bufferViews": [
    {
      "buffer": 0,
      "byteLength": 6448,
      "byteStride": 8,
      "name": "shortBufferViews",
      "target": 34962
    },
    {
      "buffer": 0,
      "byteLength": 4872,
      "byteOffset": 6448,
      "name": "floatBufferViews",
      "target": 34963
    },
    {
      "buffer": 0,
      "byteLength": 6448,
      "byteOffset": 11320,
      "byteStride": 8,
      "name": "floatBufferViews",
      "target": 34962
    },
    {
      "buffer": 0,
      "byteLength": 19344,
      "byteOffset": 17768,
      "byteStride": 12,
      "name": "floatBufferViews",
      "target": 34962
    },
    {
      "buffer": 0,
      "byteLength": 12896,
      "byteOffset": 37112,
      "byteStride": 16,
      "name": "floatBufferViews",
      "target": 34962
    },
    {
      "buffer": 0,
      "byteLength": 256,
      "byteOffset": 50008,
      "name": "floatBufferViews"
    },
    {
      "buffer": 0,
      "byteLength": 988,
      "byteOffset": 50264,
      "name": "floatBufferViews"
    },
    {
      "buffer": 0,
      "byteLength": 1620,
      "byteOffset": 51252,
      "byteStride": 12,
      "name": "floatBufferViews"
    },
    {
      "buffer": 0,
      "byteLength": 1792,
      "byteOffset": 52872,
      "byteStride": 16,
      "name": "floatBufferViews"
    }
  ],
  "buffers": [
    {
      "byteLength": 54664,
      "uri": "scene.bin"
    }
  ],
  "images": [
    {
      "uri": "textures/scanner1_baseColor.png"
    },
    {
      "uri": "textures/scanner1_metallicRoughness.png"
    },
    {
      "uri": "textures/scanner1_emissive.png"
    }
  ],
  "materials": [
    {
      "doubleSided": true,
      "emissiveFactor": [
        0.0295965,
        0.374803,
        1.0
      ],
      "name": "hologram",
      "pbrMetallicRoughness": {
        "baseColorFactor": [
          0.235923,
          0.585011,
          1.0,
          1.0
        ],
        "metallicFactor": 0.0,
        "roughnessFactor": 0.5
      }
    },
    {
      "doubleSided": true,
      "emissiveFactor": [
        1.0,
        1.0,
        1.0
      ],
      "emissiveTexture": {
        "index": 2
      },
      "name": "scanner1",
      "pbrMetallicRoughness": {
        "baseColorTexture": {
          "index": 0
        },
        "metallicRoughnessTexture": {
          "index": 1
        },
        "roughnessFactor": 0.4
      }
    }
  ],
  "meshes": [
    {
      "name": "mesh_0",
      "primitives": [
        {
          "attributes": {
            "JOINTS_0": 9,
            "NORMAL": 1,
            "POSITION": 0,
            "TEXCOORD_0": 2,
            "WEIGHTS_0": 10
          },
          "indices": 3,
          "material": 0,
          "mode": 4
        }
      ]
    },
    {
      "name": "Object_1",
      "primitives": [
        {
          "attributes": {
            "JOINTS_0": 11,
            "NORMAL": 5,
            "POSITION": 4,
            "TEXCOORD_0": 6,
            "TEXCOORD_1": 6,
            "TEXCOORD_2": 6,
            "TEXCOORD_3": 6,
            "WEIGHTS_0": 12
          },
          "indices": 7,
          "material": 1,
          "mode": 4
        }
      ]
    }
  ],
  "nodes": [
    {
      "children": [
        1
      ],
      "matrix": [
        0.04790891334414482,
        0.0,
        0.0,
        0.0,
        0.0,
        1.0637915735888197e-17,
        -0.04790891334414482,
        0.0,
        0.0,
        0.04790891334414482,
        1.0637915735888197e-17,
        0.0,
        0.0,
        0.0,
        0.0,
        1.0
      ],
      "name": "Sketchfab_model"
    },
    {
      "children": [
        2
      ],
      "name": "root"
    },
    {
      "children": [
        3
      ],
      "matrix": [
        1.0,
        0.0,
        0.0,
        0.0,
        0.0,
        2.220446049250313e-16,
        1.0,
        0.0,
        0.0,
        -1.0,
        2.220446049250313e-16,
        0.0,
        0.0,
        0.0,
        0.0,
        1.0
      ],
      "name": "GLTF_SceneRootNode"
    },
    {
      "children": [
        4
      ],
      "matrix": [
        1.0,
        0.0,
        -0.0,
        0.0,
        0.0,
        0.9806981174549403,
        -0.19552800929876024,
        0.0,
        0.0,
        0.19552800929876024,
        0.9806981174549403,
        0.0,
        0.7416170835494995,
        0.0,
        0.0,
        1.0
      ],
      "name": "scannerarmature_5"
    },
    {
      "children": [
        5,
        7,
        9,
        6,
        8
      ],
      "name": "GLTF_created_0"
    },
    {
      "children": [
        10
      ],
      "name": "GLTF_created_0_rootJoint"
    },
    {
      "name": "hologram_3"
    },
    {
      "mesh": 0,
      "name": "Object_7",
      "skin": 0
    },
    {
      "name": "scanner_4"
    },
    {
      "mesh": 1,
      "name": "Object_9",
      "skin": 0
    },
    {
      "children": [
        11
      ],
      "name": "body_2",
      "rotation": [
        4.554937049761065e-08,
        0.0,
        0.0,
        1.0
      ],
      "translation": [
        0.0,
        0.0,
        -0.2559563219547272
      ]
    },
    {
      "children": [
        12
      ],
      "name": "hinge_1",
      "rotation": [
        -3.090862321641907e-08,
        0.7071068286895752,
        0.7071068286895752,
        -3.090862676913275e-08
      ],
      "translation": [
        0.0,
        1.8925656080245972,
        0.0
      ]
    },
    {
      "name": "lid_0",
      "rotation": [
        -8.432158971061199e-09,
        -0.7071068286895752,
        0.7071068286895752,
        -5.338509012631221e-08
      ],
      "translation": [
        0.0,
        0.5538053512573242,
        0.0
      ]
    }
  ],
  "samplers": [
    {
      "magFilter": 9729,
      "minFilter": 9987,
      "wrapS": 10497,
      "wrapT": 10497
    }
  ],
  "scene": 0,
  "scenes": [
    {
      "name": "Sketchfab_Scene",
      "nodes": [
        0
      ]
    }
  ],
  "skins": [
    {
      "inverseBindMatrices": 8,
      "joints": [
        5,
        10,
        11,
        12
      ],
      "skeleton": 5
    }
  ],
  "textures": [
    {
      "sampler": 0,
      "source": 0
    },
    {
      "sampler": 0,
      "source": 1
    },
    {
      "sampler": 0,
      "source": 2
    }
  ]
}
